<mxfile host="Electron" agent="Mozilla/5.0" version="26.0.9">
  <diagram id="domain-class-diagram" name="Domain">
    <mxGraphModel dx="1280" dy="720" grid="1" gridSize="10" guides="1" tooltips="1" connect="1" arrows="1" fold="1" page="1" pageScale="1" pageWidth="1600" pageHeight="1200" math="0" shadow="0">
      <root>
        <mxCell id="0" />
        <mxCell id="1" parent="0" />

        <!-- StudyGroup class -->
        <mxCell id="StudyGroup" value="StudyGroup" style="swimlane;fontStyle=2;align=center;verticalAlign=top;childLayout=stackLayout;horizontal=1;startSize=28;horizontalStack=0;resizeParent=1;resizeLast=0;collapsible=0;marginBottom=0;rounded=0;shadow=0;strokeWidth=1;html=1;" parent="1" vertex="1">
          <mxGeometry x="200" y="120" width="220" height="420" as="geometry">
            <mxRectangle x="0" y="0" width="220" height="28" as="alternateBounds" />
          </mxGeometry>
        </mxCell>
        <mxCell id="sg-id" value="id: Long" style="text;html=1;align=left;verticalAlign=middle;resizable=0;points=[];autosize=1;spacingLeft=8;" vertex="1" parent="StudyGroup">
          <mxGeometry y="28" width="220" height="26" as="geometry" />
        </mxCell>
        <mxCell id="sg-name" value="name: String" style="text;html=1;align=left;verticalAlign=middle;resizable=0;autosize=1;spacingLeft=8;" vertex="1" parent="StudyGroup">
          <mxGeometry y="54" width="220" height="26" as="geometry" />
        </mxCell>
        <mxCell id="sg-coordinates" value="coordinates: Coordinates" style="text;html=1;align=left;verticalAlign=middle;resizable=0;autosize=1;spacingLeft=8;" vertex="1" parent="StudyGroup">
          <mxGeometry y="80" width="220" height="26" as="geometry" />
        </mxCell>
        <mxCell id="sg-creationDate" value="creationDate: LocalDateTime" style="text;html=1;align=left;verticalAlign=middle;resizable=0;autosize=1;spacingLeft=8;" vertex="1" parent="StudyGroup">
          <mxGeometry y="106" width="220" height="26" as="geometry" />
        </mxCell>
        <mxCell id="sg-studentsCount" value="studentsCount: Long?" style="text;html=1;align=left;verticalAlign=middle;resizable=0;autosize=1;spacingLeft=8;" vertex="1" parent="StudyGroup">
          <mxGeometry y="132" width="220" height="26" as="geometry" />
        </mxCell>
        <mxCell id="sg-expelled" value="expelledStudents: long" style="text;html=1;align=left;verticalAlign=middle;resizable=0;autosize=1;spacingLeft=8;" vertex="1" parent="StudyGroup">
          <mxGeometry y="158" width="220" height="26" as="geometry" />
        </mxCell>
        <mxCell id="sg-transferred" value="transferredStudents: long" style="text;html=1;align=left;verticalAlign=middle;resizable=0;autosize=1;spacingLeft=8;" vertex="1" parent="StudyGroup">
          <mxGeometry y="184" width="220" height="26" as="geometry" />
        </mxCell>
        <mxCell id="sg-form" value="formOfEducation: FormOfEducation?" style="text;html=1;align=left;verticalAlign=middle;resizable=0;autosize=1;spacingLeft=8;" vertex="1" parent="StudyGroup">
          <mxGeometry y="210" width="220" height="26" as="geometry" />
        </mxCell>
        <mxCell id="sg-should" value="shouldBeExpelled: long" style="text;html=1;align=left;verticalAlign=middle;resizable=0;autosize=1;spacingLeft=8;" vertex="1" parent="StudyGroup">
          <mxGeometry y="236" width="220" height="26" as="geometry" />
        </mxCell>
        <mxCell id="sg-average" value="averageMark: Integer?" style="text;html=1;align=left;verticalAlign=middle;resizable=0;autosize=1;spacingLeft=8;" vertex="1" parent="StudyGroup">
          <mxGeometry y="262" width="220" height="26" as="geometry" />
        </mxCell>
        <mxCell id="sg-semester" value="semesterEnum: Semester" style="text;html=1;align=left;verticalAlign=middle;resizable=0;autosize=1;spacingLeft=8;" vertex="1" parent="StudyGroup">
          <mxGeometry y="288" width="220" height="26" as="geometry" />
        </mxCell>
        <mxCell id="sg-admin" value="groupAdmin: Person?" style="text;html=1;align=left;verticalAlign=middle;resizable=0;autosize=1;spacingLeft=8;" vertex="1" parent="StudyGroup">
          <mxGeometry y="314" width="220" height="26" as="geometry" />
        </mxCell>

        <!-- Coordinates class -->
        <mxCell id="Coordinates" value="Coordinates" style="swimlane;fontStyle=2;align=center;verticalAlign=top;childLayout=stackLayout;horizontal=1;startSize=28;horizontalStack=0;resizeParent=1;collapsible=0;marginBottom=0;rounded=0;shadow=0;strokeWidth=1;html=1;" parent="1" vertex="1">
          <mxGeometry x="540" y="120" width="200" height="200" as="geometry" />
        </mxCell>
        <mxCell id="c-id" value="id: Long" style="text;html=1;align=left;verticalAlign=middle;resizable=0;autosize=1;spacingLeft=8;" vertex="1" parent="Coordinates">
          <mxGeometry y="28" width="200" height="26" as="geometry" />
        </mxCell>
        <mxCell id="c-x" value="x: long" style="text;html=1;align=left;verticalAlign=middle;resizable=0;autosize=1;spacingLeft=8;" vertex="1" parent="Coordinates">
          <mxGeometry y="54" width="200" height="26" as="geometry" />
        </mxCell>
        <mxCell id="c-y" value="y: float" style="text;html=1;align=left;verticalAlign=middle;resizable=0;autosize=1;spacingLeft=8;" vertex="1" parent="Coordinates">
          <mxGeometry y="80" width="200" height="26" as="geometry" />
        </mxCell>

        <!-- Person class -->
        <mxCell id="Person" value="Person" style="swimlane;fontStyle=2;align=center;verticalAlign=top;childLayout=stackLayout;horizontal=1;startSize=28;horizontalStack=0;resizeParent=1;collapsible=0;marginBottom=0;rounded=0;shadow=0;strokeWidth=1;html=1;" parent="1" vertex="1">
          <mxGeometry x="200" y="460" width="220" height="360" as="geometry" />
        </mxCell>
        <mxCell id="p-id" value="id: Long" style="text;html=1;align=left;verticalAlign=middle;resizable=0;autosize=1;spacingLeft=8;" vertex="1" parent="Person">
          <mxGeometry y="28" width="220" height="26" as="geometry" />
        </mxCell>
        <mxCell id="p-name" value="name: String" style="text;html=1;align=left;verticalAlign=middle;resizable=0;autosize=1;spacingLeft=8;" vertex="1" parent="Person">
          <mxGeometry y="54" width="220" height="26" as="geometry" />
        </mxCell>
        <mxCell id="p-eye" value="eyeColor: Color?" style="text;html=1;align=left;verticalAlign=middle;resizable=0;autosize=1;spacingLeft=8;" vertex="1" parent="Person">
          <mxGeometry y="80" width="220" height="26" as="geometry" />
        </mxCell>
        <mxCell id="p-hair" value="hairColor: Color" style="text;html=1;align=left;verticalAlign=middle;resizable=0;autosize=1;spacingLeft=8;" vertex="1" parent="Person">
          <mxGeometry y="106" width="220" height="26" as="geometry" />
        </mxCell>
        <mxCell id="p-location" value="location: Location?" style="text;html=1;align=left;verticalAlign=middle;resizable=0;autosize=1;spacingLeft=8;" vertex="1" parent="Person">
          <mxGeometry y="132" width="220" height="26" as="geometry" />
        </mxCell>
        <mxCell id="p-height" value="height: Long" style="text;html=1;align=left;verticalAlign=middle;resizable=0;autosize=1;spacingLeft=8;" vertex="1" parent="Person">
          <mxGeometry y="158" width="220" height="26" as="geometry" />
        </mxCell>
        <mxCell id="p-weight" value="weight: float" style="text;html=1;align=left;verticalAlign=middle;resizable=0;autosize=1;spacingLeft=8;" vertex="1" parent="Person">
          <mxGeometry y="184" width="220" height="26" as="geometry" />
        </mxCell>
        <mxCell id="p-nation" value="nationality: Country?" style="text;html=1;align=left;verticalAlign=middle;resizable=0;autosize=1;spacingLeft=8;" vertex="1" parent="Person">
          <mxGeometry y="210" width="220" height="26" as="geometry" />
        </mxCell>

        <!-- Location class -->
        <mxCell id="Location" value="Location" style="swimlane;fontStyle=2;align=center;verticalAlign=top;childLayout=stackLayout;horizontal=1;startSize=28;horizontalStack=0;resizeParent=1;collapsible=0;marginBottom=0;rounded=0;shadow=0;strokeWidth=1;html=1;" parent="1" vertex="1">
          <mxGeometry x="540" y="460" width="220" height="260" as="geometry" />
        </mxCell>
        <mxCell id="l-id" value="id: Long" style="text;html=1;align=left;verticalAlign=middle;resizable=0;autosize=1;spacingLeft=8;" vertex="1" parent="Location">
          <mxGeometry y="28" width="220" height="26" as="geometry" />
        </mxCell>
        <mxCell id="l-x" value="x: int" style="text;html=1;align=left;verticalAlign=middle;resizable=0;autosize=1;spacingLeft=8;" vertex="1" parent="Location">
          <mxGeometry y="54" width="220" height="26" as="geometry" />
        </mxCell>
        <mxCell id="l-y" value="y: Double" style="text;html=1;align=left;verticalAlign=middle;resizable=0;autosize=1;spacingLeft=8;" vertex="1" parent="Location">
          <mxGeometry y="80" width="220" height="26" as="geometry" />
        </mxCell>
        <mxCell id="l-z" value="z: double" style="text;html=1;align=left;verticalAlign=middle;resizable=0;autosize=1;spacingLeft=8;" vertex="1" parent="Location">
          <mxGeometry y="106" width="220" height="26" as="geometry" />
        </mxCell>
        <mxCell id="l-name" value="name: String" style="text;html=1;align=left;verticalAlign=middle;resizable=0;autosize=1;spacingLeft=8;" vertex="1" parent="Location">
          <mxGeometry y="132" width="220" height="26" as="geometry" />
        </mxCell>

        <!-- Enumerations -->
        <mxCell id="FormOfEducation" value="FormOfEducation" style="swimlane;fontStyle=2;align=center;verticalAlign=top;childLayout=stackLayout;horizontal=1;startSize=28;horizontalStack=0;resizeParent=1;collapsible=0;marginBottom=0;rounded=0;shadow=0;strokeWidth=1;html=1;" parent="1" vertex="1">
          <mxGeometry x="860" y="120" width="200" height="180" as="geometry" />
        </mxCell>
        <mxCell id="foe1" value="DISTANCE_EDUCATION" style="text;html=1;align=left;spacingLeft=8;" vertex="1" parent="FormOfEducation">
          <mxGeometry y="28" width="200" height="26" as="geometry" />
        </mxCell>
        <mxCell id="foe2" value="FULL_TIME_EDUCATION" style="text;html=1;align=left;spacingLeft=8;" vertex="1" parent="FormOfEducation">
          <mxGeometry y="54" width="200" height="26" as="geometry" />
        </mxCell>
        <mxCell id="foe3" value="EVENING_CLASSES" style="text;html=1;align=left;spacingLeft=8;" vertex="1" parent="FormOfEducation">
          <mxGeometry y="80" width="200" height="26" as="geometry" />
        </mxCell>

        <mxCell id="Semester" value="Semester" style="swimlane;fontStyle=2;align=center;verticalAlign=top;childLayout=stackLayout;horizontal=1;startSize=28;horizontalStack=0;resizeParent=1;collapsible=0;marginBottom=0;rounded=0;shadow=0;strokeWidth=1;html=1;" parent="1" vertex="1">
          <mxGeometry x="1080" y="120" width="200" height="220" as="geometry" />
        </mxCell>
        <mxCell id="sem1" value="FIRST" style="text;html=1;align=left;spacingLeft=8;" vertex="1" parent="Semester">
          <mxGeometry y="28" width="200" height="26" as="geometry" />
        </mxCell>
        <mxCell id="sem2" value="SECOND" style="text;html=1;align=left;spacingLeft=8;" vertex="1" parent="Semester">
          <mxGeometry y="54" width="200" height="26" as="geometry" />
        </mxCell>
        <mxCell id="sem3" value="FOURTH" style="text;html=1;align=left;spacingLeft=8;" vertex="1" parent="Semester">
          <mxGeometry y="80" width="200" height="26" as="geometry" />
        </mxCell>
        <mxCell id="sem4" value="SIXTH" style="text;html=1;align=left;spacingLeft=8;" vertex="1" parent="Semester">
          <mxGeometry y="106" width="200" height="26" as="geometry" />
        </mxCell>
        <mxCell id="sem5" value="SEVENTH" style="text;html=1;align=left;spacingLeft=8;" vertex="1" parent="Semester">
          <mxGeometry y="132" width="200" height="26" as="geometry" />
        </mxCell>

        <mxCell id="Color" value="Color" style="swimlane;fontStyle=2;align=center;verticalAlign=top;childLayout=stackLayout;horizontal=1;startSize=28;horizontalStack=0;resizeParent=1;collapsible=0;marginBottom=0;rounded=0;shadow=0;strokeWidth=1;html=1;" parent="1" vertex="1">
          <mxGeometry x="860" y="360" width="200" height="150" as="geometry" />
        </mxCell>
        <mxCell id="color1" value="BLACK" style="text;html=1;align=left;spacingLeft=8;" vertex="1" parent="Color">
          <mxGeometry y="28" width="200" height="26" as="geometry" />
        </mxCell>
        <mxCell id="color2" value="YELLOW" style="text;html=1;align=left;spacingLeft=8;" vertex="1" parent="Color">
          <mxGeometry y="54" width="200" height="26" as="geometry" />
        </mxCell>
        <mxCell id="color3" value="ORANGE" style="text;html=1;align=left;spacingLeft=8;" vertex="1" parent="Color">
          <mxGeometry y="80" width="200" height="26" as="geometry" />
        </mxCell>

        <mxCell id="Country" value="Country" style="swimlane;fontStyle=2;align=center;verticalAlign=top;childLayout=stackLayout;horizontal=1;startSize=28;horizontalStack=0;resizeParent=1;collapsible=0;marginBottom=0;rounded=0;shadow=0;strokeWidth=1;html=1;" parent="1" vertex="1">
          <mxGeometry x="1080" y="360" width="200" height="180" as="geometry" />
        </mxCell>
        <mxCell id="country1" value="UNITED_KINGDOM" style="text;html=1;align=left;spacingLeft=8;" vertex="1" parent="Country">
          <mxGeometry y="28" width="200" height="26" as="geometry" />
        </mxCell>
        <mxCell id="country2" value="FRANCE" style="text;html=1;align=left;spacingLeft=8;" vertex="1" parent="Country">
          <mxGeometry y="54" width="200" height="26" as="geometry" />
        </mxCell>
        <mxCell id="country3" value="INDIA" style="text;html=1;align=left;spacingLeft=8;" vertex="1" parent="Country">
          <mxGeometry y="80" width="200" height="26" as="geometry" />
        </mxCell>
        <mxCell id="country4" value="VATICAN" style="text;html=1;align=left;spacingLeft=8;" vertex="1" parent="Country">
          <mxGeometry y="106" width="200" height="26" as="geometry" />
        </mxCell>

        <!-- Relationships -->
        <mxCell id="edge-sg-coordinates" style="endArrow=block;endFill=1;strokeWidth=1;" parent="1" source="StudyGroup" target="Coordinates" edge="1">
          <mxGeometry relative="1" as="geometry" />
        </mxCell>
        <mxCell id="edge-sg-person" style="endArrow=block;endFill=1;strokeWidth=1;" parent="1" source="StudyGroup" target="Person" edge="1">
          <mxGeometry relative="1" as="geometry" />
        </mxCell>
        <mxCell id="edge-person-location" style="endArrow=block;endFill=1;strokeWidth=1;" parent="1" source="Person" target="Location" edge="1">
          <mxGeometry relative="1" as="geometry" />
        </mxCell>
        <mxCell id="edge-person-color" style="endArrow=open;dashed=1;strokeWidth=1;" parent="1" source="Person" target="Color" edge="1">
          <mxGeometry relative="1" as="geometry" />
        </mxCell>
        <mxCell id="edge-person-country" style="endArrow=open;dashed=1;strokeWidth=1;" parent="1" source="Person" target="Country" edge="1">
          <mxGeometry relative="1" as="geometry" />
        </mxCell>
        <mxCell id="edge-sg-form" style="endArrow=open;dashed=1;strokeWidth=1;" parent="1" source="StudyGroup" target="FormOfEducation" edge="1">
          <mxGeometry relative="1" as="geometry" />
        </mxCell>
        <mxCell id="edge-sg-semester" style="endArrow=open;dashed=1;strokeWidth=1;" parent="1" source="StudyGroup" target="Semester" edge="1">
          <mxGeometry relative="1" as="geometry" />
        </mxCell>
      </root>
    </mxGraphModel>
  </diagram>
</mxfile>
